<svg id="Layer_1" data-name="Layer 1" xmlns="http://www.w3.org/2000/svg" viewBox="0 0 181 181"><defs><style>.cls-1,.cls-3{fill:none;}.cls-2{fill:#e5e4d3;}.cls-3{stroke:#231f20;stroke-miterlimit:10;}.cls-4{fill:#231f20;}</style></defs><title>branding-icon</title><circle class="cls-1" cx="90.5" cy="90.5" r="90.5"/><circle class="cls-2" cx="119.84" cy="82" r="41.74"/><path class="cls-3" d="M113.62,83.66a17.91,17.91,0,0,0,3.88-11.33C117.41,62.37,109,54.5,99,54.5H63.43a8.93,8.93,0,0,0-8.93,8.93v54.14a8.93,8.93,0,0,0,8.93,8.93H104a22.23,22.23,0,0,0,4.5-.45,22.5,22.5,0,0,0,5.12-42.39ZM83.56,63.5H99.19a9.21,9.21,0,0,1,9.29,8.4,9,9,0,0,1-9,9.6H83.56a2.06,2.06,0,0,1-2.06-2.06V65.56A2.06,2.06,0,0,1,83.56,63.5Zm20.06,54H83.56a2.06,2.06,0,0,1-2.06-2.06V92.56a2.06,2.06,0,0,1,2.06-2.06H104a13.51,13.51,0,0,1,13.49,14.14A13.76,13.76,0,0,1,103.62,117.5Z" transform="translate(0 0)"/><path class="cls-4" d="M126.27,63.78a11.32,11.32,0,0,0-8.49,8.49.28.28,0,0,1-.56,0,11.32,11.32,0,0,0-8.49-8.49.28.28,0,0,1,0-.56,11.32,11.32,0,0,0,8.49-8.49.28.28,0,0,1,.56,0,11.32,11.32,0,0,0,8.49,8.49A.28.28,0,0,1,126.27,63.78Z" transform="translate(0 0)"/></svg>