<svg id="Layer_1" data-name="Layer 1" xmlns="http://www.w3.org/2000/svg" xmlns:xlink="http://www.w3.org/1999/xlink" viewBox="0 0 180 180"><defs><style>.cls-1{fill:none;}.cls-2{fill:#231f20;}.cls-3{fill:url(#_6_dpi_60_);}</style><pattern id="_6_dpi_60_" data-name="6 dpi 60%" width="48" height="48" patternTransform="translate(-36 -42)" patternUnits="userSpaceOnUse" viewBox="0 0 48 48"><rect class="cls-1" width="48" height="48"/><path class="cls-2" d="M24,55.2A7.2,7.2,0,1,0,16.8,48,7.2,7.2,0,0,0,24,55.2Z"/><path class="cls-2" d="M48,55.2A7.2,7.2,0,1,0,40.8,48,7.2,7.2,0,0,0,48,55.2Z"/><path class="cls-2" d="M24,31.2A7.2,7.2,0,1,0,16.8,24,7.2,7.2,0,0,0,24,31.2Z"/><path class="cls-2" d="M48,31.2A7.2,7.2,0,1,0,40.8,24,7.2,7.2,0,0,0,48,31.2Z"/><path class="cls-2" d="M36,43.2A7.2,7.2,0,1,0,28.8,36,7.2,7.2,0,0,0,36,43.2Z"/><path class="cls-2" d="M12,43.2A7.2,7.2,0,1,0,4.8,36,7.2,7.2,0,0,0,12,43.2Z"/><path class="cls-2" d="M36,19.2A7.2,7.2,0,1,0,28.8,12,7.2,7.2,0,0,0,36,19.2Z"/><path class="cls-2" d="M12,19.2A7.2,7.2,0,1,0,4.8,12,7.2,7.2,0,0,0,12,19.2Z"/><path class="cls-2" d="M0,55.2A7.2,7.2,0,0,0,0,40.8,7.2,7.2,0,0,0-7.2,48,7.2,7.2,0,0,0,0,55.2Z"/><path class="cls-2" d="M0,31.2A7.2,7.2,0,0,0,0,16.8,7.2,7.2,0,0,0-7.2,24,7.2,7.2,0,0,0,0,31.2Z"/><path class="cls-2" d="M24,7.2A7.2,7.2,0,0,0,31.2,0,7.2,7.2,0,0,0,24-7.2,7.2,7.2,0,0,0,16.8,0,7.2,7.2,0,0,0,24,7.2Z"/><path class="cls-2" d="M48,7.2A7.2,7.2,0,0,0,55.2,0,7.2,7.2,0,0,0,48-7.2,7.2,7.2,0,0,0,40.8,0,7.2,7.2,0,0,0,48,7.2Z"/><path class="cls-2" d="M0,7.2A7.2,7.2,0,0,0,7.2,0,7.2,7.2,0,0,0,0-7.2,7.2,7.2,0,0,0-7.2,0,7.2,7.2,0,0,0,0,7.2Z"/></pattern></defs><title>header-graphic-02</title><circle class="cls-3" cx="90" cy="90" r="90"/></svg>