<svg id="Layer_1" data-name="Layer 1" xmlns="http://www.w3.org/2000/svg" viewBox="0 0 181 181"><defs><style>.cls-1,.cls-3,.cls-5{fill:none;}.cls-2{fill:#e5e4d3;}.cls-3,.cls-5{stroke:#231f20;}.cls-3{stroke-linejoin:round;}.cls-4{fill:#231f20;}.cls-5{stroke-miterlimit:10;}</style></defs><title>illustration-icon</title><circle class="cls-1" cx="90.5" cy="90.5" r="90.5"/><circle class="cls-2" cx="67.85" cy="113.21" r="41.74"/><path class="cls-3" d="M80.91,56.75h24a8.92,8.92,0,0,1,8.92,8.92v53.79a0,0,0,0,1,0,0H72a0,0,0,0,1,0,0V65.67a8.92,8.92,0,0,1,8.92-8.92Z" transform="translate(89.51 -39.88) rotate(45)"/><path class="cls-4" d="M71.3,125.64l-12.48.51a3.75,3.75,0,0,1-4-4l.51-12.48Z" transform="translate(0 0)"/><polygon class="cls-3" points="85.5 125.06 71.3 125.64 55.36 109.69 55.94 95.5 85.5 125.06"/><line class="cls-5" x1="122.46" y1="73.32" x2="78.11" y2="117.67"/><line class="cls-3" x1="107.67" y1="58.54" x2="63.33" y2="102.89"/><path class="cls-5" d="M71.3,125.64l-12.48.51a3.75,3.75,0,0,1-4-4l.51-12.48Z" transform="translate(0 0)"/></svg>