<svg id="Layer_1" data-name="Layer 1" xmlns="http://www.w3.org/2000/svg" xmlns:xlink="http://www.w3.org/1999/xlink" viewBox="0 0 784 522.28"><defs><style>.cls-1{fill:none;}.cls-2{fill:#231f20;}.cls-3{clip-path:url(#clip-path);}.cls-4{fill:#f7f47c;}.cls-5{fill:url(#_10_dpi_30_);}</style><clipPath id="clip-path" transform="translate(0.46)"><rect class="cls-1" x="-53.82" y="0.13" width="879.63" height="557.74"/></clipPath><pattern id="_10_dpi_30_" data-name="10 dpi 30%" width="28.8" height="28.8" patternTransform="translate(-16.8 -3.59)" patternUnits="userSpaceOnUse" viewBox="0 0 28.8 28.8"><rect class="cls-1" width="28.8" height="28.8"/><path class="cls-2" d="M28.8,31a2.16,2.16,0,1,0-2.16-2.16A2.16,2.16,0,0,0,28.8,31Z"/><path class="cls-2" d="M14.4,31a2.16,2.16,0,1,0-2.16-2.16A2.16,2.16,0,0,0,14.4,31Z"/><path class="cls-2" d="M28.8,16.56a2.16,2.16,0,1,0-2.16-2.16A2.16,2.16,0,0,0,28.8,16.56Z"/><path class="cls-2" d="M14.4,16.56a2.16,2.16,0,1,0-2.16-2.16A2.16,2.16,0,0,0,14.4,16.56Z"/><path class="cls-2" d="M7.2,23.76A2.16,2.16,0,1,0,5,21.6,2.16,2.16,0,0,0,7.2,23.76Z"/><path class="cls-2" d="M21.6,23.76a2.16,2.16,0,1,0-2.16-2.16A2.16,2.16,0,0,0,21.6,23.76Z"/><path class="cls-2" d="M7.2,9.36A2.16,2.16,0,1,0,5,7.2,2.16,2.16,0,0,0,7.2,9.36Z"/><path class="cls-2" d="M21.6,9.36A2.16,2.16,0,1,0,19.44,7.2,2.16,2.16,0,0,0,21.6,9.36Z"/><path class="cls-2" d="M0,31A2.16,2.16,0,0,0,2.16,28.8,2.16,2.16,0,0,0,0,26.64,2.16,2.16,0,0,0,0,31Z"/><path class="cls-2" d="M0,16.56A2.16,2.16,0,0,0,2.16,14.4,2.16,2.16,0,0,0,0,12.24a2.16,2.16,0,1,0,0,4.32Z"/><path class="cls-2" d="M28.8,2.16A2.16,2.16,0,0,0,31,0a2.16,2.16,0,0,0-4.32,0A2.16,2.16,0,0,0,28.8,2.16Z"/><path class="cls-2" d="M14.4,2.16A2.16,2.16,0,0,0,16.56,0a2.16,2.16,0,1,0-4.32,0A2.16,2.16,0,0,0,14.4,2.16Z"/><path class="cls-2" d="M0,2.16A2.16,2.16,0,0,0,2.16,0,2.16,2.16,0,0,0,0-2.16,2.16,2.16,0,0,0-2.16,0,2.16,2.16,0,0,0,0,2.16Z"/></pattern></defs><title>header-graphic-01</title><g class="cls-3"><path class="cls-4" d="M467.14,0H113.94A290.53,290.53,0,0,0-.46,231.28c0,160.72,130.29,291,291,291s291-130.28,291-291A290.5,290.5,0,0,0,467.14,0Z" transform="translate(0.46)"/><path class="cls-5" d="M757.67,0H430.42a188.64,188.64,0,0,0-25.88,95.63c0,104.66,84.85,189.5,189.5,189.5s189.5-84.84,189.5-189.5A188.63,188.63,0,0,0,757.67,0Z" transform="translate(0.46)"/></g></svg>