<svg id="Layer_1" data-name="Layer 1" xmlns="http://www.w3.org/2000/svg" viewBox="0 0 181 181"><defs><style>.cls-1,.cls-3{fill:none;}.cls-2{fill:#e5e4d3;}.cls-3{stroke:#231f20;stroke-linecap:round;stroke-miterlimit:10;}.cls-4{fill:#231f20;}</style></defs><title>marketing-icon</title><circle class="cls-1" cx="90.5" cy="90.5" r="90.5"/><circle class="cls-2" cx="66.75" cy="80.69" r="41.74"/><path class="cls-3" d="M109.05,54.51A18,18,0,0,0,91.87,66.18a1.47,1.47,0,0,1-2.77,0A18,18,0,0,0,71.93,54.51c-10.42.33-18.08,10.24-17.37,21.22,1.21,18.86,17.37,37.4,27.6,47.34a11.82,11.82,0,0,0,16.65,0c10.23-9.94,26.39-28.48,27.6-47.34C127.12,64.75,119.47,54.84,109.05,54.51Z" transform="translate(0 0)"/><path class="cls-4" d="M121.79,104h-7.46a1.34,1.34,0,0,1-1.34-1.34V95.19a4.63,4.63,0,0,0-4.06-4.67A4.5,4.5,0,0,0,104,95v7.66a1.34,1.34,0,0,1-1.34,1.34H95.18a4.63,4.63,0,0,0-4.67,4.06A4.5,4.5,0,0,0,95,113h7.66a1.34,1.34,0,0,1,1.34,1.34v7.47a4.62,4.62,0,0,0,4.05,4.67A4.51,4.51,0,0,0,113,122v-7.66a1.34,1.34,0,0,1,1.34-1.34H122a4.51,4.51,0,0,0,4.48-4.94A4.64,4.64,0,0,0,121.79,104Z" transform="translate(0 0)"/></svg>