<svg id="Layer_1" data-name="Layer 1" xmlns="http://www.w3.org/2000/svg" viewBox="0 0 181 181"><defs><style>.cls-1,.cls-4,.cls-6{fill:none;}.cls-2{fill:#e5e4d3;}.cls-3{fill:#231f20;}.cls-4,.cls-6{stroke:#231f20;stroke-miterlimit:10;}.cls-5{fill:#2b2a23;}.cls-6{stroke-width:0.5px;}</style></defs><title>web-icon</title><circle class="cls-1" cx="90.5" cy="90.5" r="90.5"/><circle class="cls-2" cx="126.4" cy="101.61" r="41.74"/><path class="cls-3" d="M101.91,99.41l21.54,7.18a2.33,2.33,0,0,1,.38,4.27l-8.35,4.53L111,123.73a2.33,2.33,0,0,1-4.27-.37L99.5,101.81A1.9,1.9,0,0,1,101.91,99.41Z" transform="translate(0 0)"/><path class="cls-3" d="M113.72,108.87h9.51a0,0,0,0,1,0,0v14.27a4.76,4.76,0,0,1-4.76,4.76h0a4.76,4.76,0,0,1-4.76-4.76V108.87a0,0,0,0,1,0,0Z" transform="translate(-49.01 118.45) rotate(-45)"/><circle class="cls-4" cx="90.4" cy="90.5" r="36"/><ellipse class="cls-4" cx="90.4" cy="90.5" rx="18" ry="36"/><line class="cls-4" x1="90.4" y1="54.5" x2="90.4" y2="126.5"/><line class="cls-4" x1="54.4" y1="90.5" x2="126.4" y2="90.5"/><line class="cls-4" x1="63.4" y1="72.5" x2="117.4" y2="72.5"/><line class="cls-4" x1="63.4" y1="108.5" x2="117.4" y2="108.5"/><rect class="cls-5" x="89.26" y="53.12" width="2.39" height="2.39"/><line class="cls-6" x1="72.4" y1="54.31" x2="108.4" y2="54.31"/><rect class="cls-3" x="71.64" y="53.55" width="1.53" height="1.53"/><rect class="cls-3" x="107.64" y="53.55" width="1.53" height="1.53"/><rect class="cls-5" x="52.57" y="89.25" width="2.39" height="2.39" transform="translate(-36.68 144.21) rotate(-90)"/><line class="cls-6" x1="53.77" y1="108.5" x2="53.77" y2="72.5"/><rect class="cls-3" x="53" y="107.73" width="1.53" height="1.53" transform="translate(-54.73 162.27) rotate(-90)"/><rect class="cls-3" x="53" y="71.73" width="1.53" height="1.53" transform="translate(-18.73 126.27) rotate(-90)"/></svg>